<svg width="82" height="27" fill="none" xmlns="http://www.w3.org/2000/svg"><g clip-path="url(#clip0)"><path d="M61.308.401a.724.724 0 00.109.86c.217.287.434.516.706.745.108.115.217.23.38.344l.163.172c-.109-.172-.109-.172.054.115 0 .057.054.057.054.115.218.286.489.458.706.687.218.23.489.46.706.631.109.115.217.287.326.401.109.115.217.172.326.287.217.23.434.401.652.63.543.516 1.14.975 1.683 1.434l-.326-.287c.869.745 1.792 1.433 2.661 2.121.76.63 1.575 1.261 2.335 1.834.815.631 1.63 1.204 2.444 1.835.326.23.597.458.923.688h-.706c-2.66-.058-5.322-.115-7.983-.115-5.322 0-10.643.057-15.965.057-10.59.058-21.179.115-31.768.287-5.974.115-11.947.287-17.921.287-1.14 0-1.14 1.891 0 1.891 5.322 0 10.644.115 15.966.23l15.965.172c10.59.057 21.179.114 31.768.114 2.987 0 5.974-.057 8.96-.114.815 0 1.63-.058 2.39-.058-.163.115-.326.23-.434.344-1.358.975-2.661 2.007-4.019 2.981-.76.573-1.575 1.147-2.335 1.72-.272.23-.543.401-.815.573l-.488.344c-.163.115-.326.23-.49.401-.433.287-.922.63-1.357.918-.108.057-.217.171-.325.229-.11.057-.218.172-.326.23l.054-.058c-.054 0-.054.057-.109.057l-.651.516c-.435.344-.923.688-1.358.975-.434.344-.923.63-1.412.917-.217.114-.326.458-.163.688a.503.503 0 00.652.172 17.44 17.44 0 011.466-.745c.489-.23 1.032-.46 1.52-.688.272-.115.49-.23.76-.344 0 0 .055 0 .055-.058.109-.057.163-.057.272-.114.108-.058.271-.115.38-.172.489-.23.977-.516 1.466-.803.217-.057.38-.172.543-.287.217-.114.38-.229.597-.343.326-.172.652-.402.978-.516.434-.172.815-.459 1.195-.688.325-.23.706-.402 1.031-.63.706-.402 1.412-.86 2.118-1.262 1.358-.86 2.716-1.72 4.073-2.637l2.281-1.548c.163-.114.326-.286.489-.458.217-.287.38-.688.38-1.09 0-.343-.055-.63-.217-.86-.109-.171-.218-.343-.38-.458-.055-.057-.11-.115-.163-.115-.49-.4-.978-.802-1.52-1.203-.49-.402-.978-.803-1.467-1.147-.978-.745-1.955-1.49-2.987-2.236-.977-.745-1.955-1.49-2.987-2.178-1.031-.688-2.009-1.433-3.04-2.121-.544-.401-1.141-.745-1.684-1.146-.272-.172-.597-.344-.87-.516-.325-.172-.65-.402-1.03-.516a12.371 12.371 0 00-.87-.516c-.326-.172-.706-.459-1.086-.573-.217-.115-.489-.23-.706-.402-.326-.172-.651-.344-.923-.458-.217 0-.597.172-.706.458z" fill="#F56C21"/></g><defs><clipPath id="clip0"><path fill="#fff" transform="rotate(-90 13.5 13.5)" d="M0 0h27v82H0z"/></clipPath></defs></svg>