<svg width="82" height="27" fill="none" xmlns="http://www.w3.org/2000/svg"><path d="M61.309.401a.724.724 0 00.108.86c.217.287.435.516.706.745.109.115.217.23.38.344l.163.172c-.108-.172-.108-.172.055.115 0 .057.054.057.054.115.217.286.489.458.706.687.217.23.488.459.706.631.108.115.217.287.326.401.108.115.217.172.325.287.218.23.435.401.652.63.543.516 1.14.975 1.684 1.434l-.326-.287c.868.745 1.792 1.433 2.66 2.121.76.63 1.575 1.261 2.336 1.834.814.631 1.629 1.204 2.443 1.835.326.23.598.458.924.688h-.706c-2.661-.058-5.322-.115-7.983-.115-5.322 0-10.644.057-15.966.057-10.59.058-21.179.115-31.768.287-5.973.115-11.947.287-17.92.287-1.14 0-1.14 1.891 0 1.891 5.321 0 10.643.115 15.965.23l15.966.172c10.589.057 21.178.114 31.768.114 2.987 0 5.973-.057 8.96-.114.815 0 1.63-.058 2.39-.058-.163.115-.326.23-.435.344-1.358.975-2.66 2.007-4.019 2.981-.76.573-1.574 1.147-2.335 1.72-.271.23-.543.401-.814.573l-.489.344c-.163.115-.326.23-.489.401-.434.287-.923.63-1.357.918-.109.057-.217.171-.326.229-.109.057-.217.172-.326.23l.054-.058c-.054 0-.054.057-.108.057l-.652.516a20.11 20.11 0 01-1.357.975c-.435.343-.924.63-1.412.917-.218.114-.326.458-.163.688a.502.502 0 00.651.172c.49-.287.978-.516 1.467-.746.488-.229 1.031-.458 1.52-.688.272-.114.489-.229.76-.343 0 0 .055 0 .055-.058.108-.057.163-.057.271-.114.109-.058.272-.115.38-.172.49-.23.978-.516 1.467-.803.217-.057.38-.172.543-.287.217-.114.38-.229.597-.343.326-.172.652-.402.977-.516.435-.172.815-.459 1.195-.688.326-.23.706-.402 1.032-.63.706-.402 1.412-.86 2.118-1.262 1.357-.86 2.715-1.72 4.073-2.637l2.28-1.548c.163-.114.326-.286.49-.458a1.87 1.87 0 00.38-1.09c0-.344-.055-.63-.218-.86-.109-.171-.217-.343-.38-.458-.054-.057-.109-.115-.163-.115-.489-.4-.977-.802-1.52-1.204-.49-.4-.978-.802-1.467-1.146a146.94 146.94 0 00-2.986-2.236c-.978-.745-1.955-1.49-2.987-2.178s-2.01-1.433-3.041-2.121c-.543-.401-1.14-.745-1.684-1.146-.271-.172-.597-.344-.869-.516-.325-.172-.651-.402-1.031-.516a12.266 12.266 0 00-.87-.516c-.325-.172-.705-.459-1.085-.574-.218-.114-.49-.229-.706-.4a12.976 12.976 0 00-.924-.46c-.217 0-.597.173-.705.46z" fill="#5C4797"/></svg>