<svg width="82" height="28" fill="none" xmlns="http://www.w3.org/2000/svg"><path d="M61.308 1.115a.724.724 0 00.109.86c.217.287.434.516.706.745.108.115.217.23.38.344l.163.172c-.109-.172-.109-.172.054.115 0 .057.054.057.054.114.218.287.489.459.706.688.218.23.489.459.706.63.109.116.217.288.326.402.109.115.217.172.326.287.217.23.434.401.652.63.543.516 1.14.975 1.683 1.433l-.326-.286c.869.745 1.792 1.433 2.661 2.12.76.632 1.575 1.262 2.335 1.835.815.63 1.63 1.204 2.444 1.835.326.229.597.458.923.688h-.706c-2.66-.058-5.322-.115-7.983-.115-5.322 0-10.643.057-15.965.057-10.59.058-21.179.115-31.768.287-5.974.114-11.947.287-17.921.287-1.14 0-1.14 1.891 0 1.891 5.322 0 10.644.115 15.966.23l15.965.171c10.59.058 21.179.115 31.768.115 2.987 0 5.974-.057 8.96-.114.815 0 1.63-.058 2.39-.058-.163.115-.326.23-.434.344-1.358.975-2.661 2.006-4.019 2.981-.76.573-1.575 1.146-2.335 1.72-.272.23-.543.401-.815.573l-.488.344c-.163.115-.326.23-.49.401-.433.287-.922.63-1.357.917-.108.058-.217.172-.325.23-.11.057-.218.172-.326.229l.054-.057c-.054 0-.054.057-.109.057l-.651.516c-.435.344-.923.688-1.358.974-.434.344-.923.631-1.412.918-.217.114-.326.458-.163.688a.503.503 0 00.652.172c.489-.287.977-.516 1.466-.746.489-.229 1.032-.458 1.52-.688.272-.114.49-.229.76-.343 0 0 .055 0 .055-.058.109-.057.163-.057.272-.114.108-.058.271-.115.38-.173.489-.229.977-.515 1.466-.802.217-.057.38-.172.543-.287.217-.114.38-.229.597-.344.326-.172.652-.4.978-.515.434-.172.815-.46 1.195-.688.325-.23.706-.402 1.031-.631.706-.401 1.412-.86 2.118-1.261 1.358-.86 2.716-1.72 4.073-2.637l2.281-1.548c.163-.114.326-.287.489-.458.217-.287.38-.688.38-1.09 0-.344-.055-.63-.217-.86-.109-.172-.218-.343-.38-.458-.055-.057-.11-.115-.163-.115-.49-.401-.978-.802-1.52-1.204-.49-.4-.978-.802-1.467-1.146-.978-.745-1.955-1.49-2.987-2.236-.977-.745-1.955-1.49-2.987-2.178-1.031-.688-2.009-1.433-3.04-2.121-.544-.401-1.141-.745-1.684-1.147-.272-.172-.597-.344-.87-.516-.325-.171-.65-.4-1.03-.515a12.371 12.371 0 00-.87-.516c-.326-.172-.706-.459-1.086-.574-.217-.114-.489-.229-.706-.4a12.975 12.975 0 00-.923-.46c-.217 0-.597.172-.706.46z" fill="#00AEEF"/></svg>