<svg width="24" height="25" fill="none" xmlns="http://www.w3.org/2000/svg"><path d="M17.045 1.087H6.955A5.962 5.962 0 001 7.042v10.09a5.962 5.962 0 005.955 5.955h10.09A5.962 5.962 0 0023 17.132V7.042a5.962 5.962 0 00-5.955-5.955zM12 18.102a6.022 6.022 0 01-6.015-6.015A6.022 6.022 0 0112 6.07a6.022 6.022 0 016.015 6.016A6.022 6.022 0 0112 18.102zM18.16 7.49a1.78 1.78 0 01-1.778-1.777c0-.98.797-1.778 1.777-1.778.98 0 1.778.797 1.778 1.778a1.78 1.78 0 01-1.778 1.777z" fill="#fff"/><path d="M12 7.361a4.731 4.731 0 00-4.726 4.726A4.731 4.731 0 0012 16.813a4.731 4.731 0 004.726-4.726A4.731 4.731 0 0012 7.36zm6.16-2.136a.488.488 0 100 .977.488.488 0 000-.977z" fill="#fff"/></svg>