<svg width="578" height="423" fill="none" xmlns="http://www.w3.org/2000/svg"><path d="M239.691 93.249s-38.942-67.406-40.58-75.186l6.225 116.084L99 10.907l77.98 171.228 56.712 113.425 136.874 103.61-59.439-130.876 132.484 19.768-57.231-65.029 151.231-17.471-114-39 96-90.5-157 33.5 32-91.5L286.588 93.25 280.111 0l-40.42 93.249z" fill="#FEF5F0"/><path d="M417.725 229.475c-3.929-8.598-3.593-27.916 28.069-26.082 31.661 1.834 32.789-10.728 37.611-29.808 2.246-8.885 17.964-29.923 44.91-16.624 26.945 13.299 39.857-16.433 42.944-32.961" stroke="#5C4797" stroke-width="2"/><path d="M422.788 241.289c-3.929-8.599-3.593-27.917 28.069-26.083 31.661 1.835 32.789-10.727 37.611-29.808 2.246-8.885 17.964-29.923 44.91-16.624 26.945 13.299 39.857-16.432 42.944-32.961" stroke="#5C4797" stroke-width="2"/><path d="M218.966 80.628l.84 2.594-.84-2.594zm14.736-63.543a2.728 2.728 0 00-1.606 5.212l1.606-5.212zm-33.41 119.543c-3.618-5.757-7.396-16.476-5.927-27.013.726-5.21 2.727-10.353 6.651-14.892 3.928-4.543 9.903-8.622 18.79-11.501l-1.68-5.188c-9.655 3.128-16.542 7.694-21.235 13.123-4.698 5.434-7.076 11.593-7.927 17.705-1.687 12.104 2.586 24.104 6.711 30.668l4.617-2.902zm19.514-53.406c24.391-7.901 33.945-22.433 34.025-36.482.077-13.623-8.9-26.196-20.129-29.655l-1.606 5.212c8.684 2.675 16.347 12.924 16.282 24.412-.063 11.063-7.431 23.932-30.252 31.325l1.68 5.188zm82.472 220.971l1.181 2.457-1.181-2.457zm-26.422-17.244a2.727 2.727 0 014.758 2.665l-4.758-2.665zm49.037 30.29c-.573-2.821-2.581-7.261-6.091-10.047-1.708-1.355-3.751-2.307-6.188-2.543-2.443-.237-5.467.228-9.155 2.001l-2.363-4.914c4.415-2.123 8.436-2.864 12.044-2.515 3.615.35 6.631 1.778 9.052 3.7 4.749 3.769 7.282 9.477 8.045 13.233l-5.344 1.085zm-21.434-10.589c-11.058 5.316-19.607 3.587-24.663-1.657-4.76-4.938-5.939-12.689-2.94-18.044l4.758 2.665c-1.698 3.03-1.17 8.193 2.108 11.594 2.983 3.094 8.803 5.129 18.374.528l2.363 4.914z" fill="#00AEEF"/><g clip-path="url(#clip0)"><path d="M54.044 330.09s56.437 55.955 70.938 66.33c16.833 12.043 39.562-10.868 31.98-23.901-7.59-13.049-65.404-54.923-65.404-54.923L54.044 330.09z" fill="#462B92"/><path d="M66.278 265.061l107.464-115.644 66.413 150.285-151.78 25.465-22.097-60.106z" fill="#5438A5"/><path d="M243.119 301.385c8.651-3.939 0-41.536-19.322-83.975-19.322-42.44-41.998-73.651-50.649-69.712-8.651 3.938 0 41.535 19.322 83.974 19.322 42.44 41.998 73.651 50.649 69.713z" fill="#8069C0"/><path d="M241.924 295.599c-2.07-.8-7.684-4.933-16.859-18.094-8.875-12.709-18.468-30.076-27.029-48.879-8.56-18.802-15.344-37.448-19.118-52.48-3.902-15.562-3.339-22.525-2.577-24.597 2.07.801 7.684 4.934 16.859 18.094 8.875 12.71 18.468 30.077 27.029 48.879 8.561 18.803 15.344 37.449 19.118 52.481 3.879 15.553 3.333 22.509 2.577 24.596z" fill="#462B92"/><path fill-rule="evenodd" clip-rule="evenodd" d="M207.81 249.324a299.273 299.273 0 01-10.256-20.461c-3.497-7.68-6.562-15.227-9.161-22.447a29.158 29.158 0 019.604-7.009c13.921-6.338 25.769 1.039 31.714 14.097 5.945 13.059 3.73 26.839-10.191 33.177a29.143 29.143 0 01-11.71 2.643z" fill="#F56C21"/><path d="M39.105 273.548c7.11-4.278 17.718-9.487 30.54-12.123 5.281 21.755 15.351 42.334 29.61 61.916l-32.787 14.927c-5.227 2.379-11.413.611-14.58-4.182-6.349-9.615-16.26-26.098-20.485-41.038a17.256 17.256 0 017.702-19.5z" fill="#462B92"/><path d="M65.702 279.78L40.15 291.414a2.38 2.38 0 01-2.452-.267 2.39 2.39 0 01-.943-2.28.583.583 0 01.666-.493.584.584 0 01.493.666c-.072.468.113.915.481 1.183.376.284.852.332 1.276.139l25.552-11.633c.628-.286.91-1.04.624-1.668l-.829-1.82a1.266 1.266 0 00-1.667-.624l-25.74 11.719a.582.582 0 01-.777-.291.582.582 0 01.29-.777l25.74-11.719a2.422 2.422 0 013.199 1.197l.828 1.821a2.425 2.425 0 01-1.19 3.213zm7.89 18.451l-25.551 11.634a2.38 2.38 0 01-2.452-.267 2.391 2.391 0 01-.944-2.28.583.583 0 01.666-.493.583.583 0 01.493.666c-.07.468.113.915.482 1.183.375.284.852.332 1.276.139l25.552-11.633c.627-.286.91-1.04.624-1.668l-.83-1.82a1.266 1.266 0 00-1.666-.624l-25.74 11.719a.582.582 0 01-.777-.291.582.582 0 01.29-.777L70.755 292a2.422 2.422 0 013.198 1.197l.83 1.821a2.425 2.425 0 01-1.19 3.213zm13.935-47.885a.585.585 0 01-.668-.928l76.481-81.187a.583.583 0 01.819-.032.584.584 0 01.032.819L87.71 250.206a.48.48 0 01-.183.14zM74.24 264.449a.583.583 0 01-.668-.928l5.056-5.372a.584.584 0 01.82-.032.584.584 0 01.032.819l-5.058 5.373a.49.49 0 01-.183.14zm11.728 53.514l-25.536 11.626a2.375 2.375 0 01-2.453-.267 2.39 2.39 0 01-.943-2.28.585.585 0 01.666-.493.585.585 0 01.493.667c-.071.468.113.914.482 1.183.375.283.852.332 1.276.139l25.536-11.626c.628-.286.91-1.04.624-1.668l-.829-1.82a1.267 1.267 0 00-1.667-.625l-25.74 11.719a.581.581 0 01-.777-.29.582.582 0 01.29-.777l25.74-11.719a2.422 2.422 0 013.198 1.197l.83 1.821a2.403 2.403 0 01-1.19 3.213zm59.219 69.562a18.695 18.695 0 01-3.703 1.231c-5.663 1.214-11.412-.261-15.749-4.085l-41.048-36.054a.587.587 0 01.773-.883l41.048 36.054c4.068 3.567 9.442 4.967 14.74 3.825 5.211-1.122 9.457-4.533 11.639-9.354.109-.259.235-.524.345-.782a.577.577 0 01.767-.312.579.579 0 01.312.768c-.118.281-.244.546-.354.805-1.818 3.954-4.909 7.029-8.77 8.787z" fill="#6C51B6"/><path opacity=".67" d="M224.845 214.755a.597.597 0 01-.755-.244c-3.385-6.228-7.8-10.016-13.135-11.244-9.214-2.134-18.123 4.101-18.21 4.16a.571.571 0 01-.805-.145.56.56 0 01.145-.805c.388-.272 9.432-6.587 19.151-4.342 5.671 1.302 10.349 5.293 13.893 11.827a.581.581 0 01-.23.787.14.14 0 00-.054.006z" fill="#fff"/></g><defs><clipPath id="clip0"><path fill="#fff" transform="rotate(-24.479 522.126 113.264)" d="M0 0h224.361v215.566H0z"/></clipPath></defs></svg>