<svg width="24" height="25" fill="none" xmlns="http://www.w3.org/2000/svg"><path d="M23 5.101a9.505 9.505 0 01-2.592.678c.932-.532 1.65-1.373 1.986-2.373a9.262 9.262 0 01-2.867 1.04c-.825-.837-2-1.36-3.296-1.36-2.494 0-4.513 1.922-4.513 4.29 0 .337.037.665.117.98-3.753-.178-7.082-1.887-9.306-4.485a4.126 4.126 0 00-.61 2.156c0 1.487.801 2.802 2.013 3.572a4.588 4.588 0 01-2.05-.536v.054c0 2.08 1.556 3.811 3.622 4.205a4.77 4.77 0 01-1.19.15 4.49 4.49 0 01-.848-.079c.574 1.705 2.243 2.944 4.22 2.98a9.359 9.359 0 01-5.61 1.837A9.64 9.64 0 011 18.148a13.104 13.104 0 006.91 1.939c8.311 0 12.852-6.539 12.852-12.21 0-.186-.004-.372-.014-.553A8.946 8.946 0 0023 5.1z" fill="#fff"/></svg>