<svg width="305" height="73" fill="none" xmlns="http://www.w3.org/2000/svg"><path d="M26.73 61.466c-2.958 2.746-6.682 4.144-11.12 4.144-4.49 0-8.213-1.398-11.172-4.144C1.48 58.719 0 55.174 0 50.83c0-4.295 1.48-7.84 4.438-10.586 2.959-2.747 6.683-4.145 11.172-4.145 4.49 0 8.213 1.398 11.12 4.145 2.96 2.746 4.439 6.291 4.439 10.586 0 4.344-1.48 7.89-4.438 10.636zm-11.12-2.347c2.347 0 4.285-.8 5.713-2.347 1.48-1.548 2.194-3.545 2.194-5.892 0-2.347-.714-4.345-2.194-5.893-1.479-1.548-3.366-2.346-5.713-2.346-2.398 0-4.336.798-5.764 2.346-1.48 1.548-2.194 3.546-2.194 5.893s.714 4.344 2.194 5.892c1.428 1.548 3.366 2.347 5.764 2.347zm40.147 5.991h-6.733V53.177c0-2.297-1.174-3.445-3.47-3.445-1.632 0-3.01.649-4.132 1.997v13.383H34.69V44.438h6.733v2.546c1.786-2.047 4.235-3.046 7.295-3.046 2.347 0 4.081.6 5.255 1.798 1.173 1.199 1.734 2.796 1.734 4.794v14.58h.051zm11.529 0h-6.734V36.546h6.734v28.562zm10.917-23.618c-.765.748-1.633 1.098-2.755 1.098-1.071 0-1.99-.35-2.754-1.099-.766-.748-1.123-1.647-1.123-2.696 0-1.049.357-1.947 1.123-2.697.765-.748 1.632-1.098 2.754-1.098 1.072 0 1.99.35 2.755 1.099.765.749 1.122 1.597 1.122 2.696-.05 1.049-.408 1.947-1.122 2.697zm.612 23.619h-6.734V44.438h6.734V65.11zm25.813-.001h-6.734V53.177c0-2.297-1.173-3.445-3.468-3.445-1.633 0-3.01.649-4.133 1.997v13.383H83.56V44.438h6.733v2.546c1.786-2.047 4.235-3.046 7.295-3.046 2.347 0 4.081.6 5.255 1.798 1.173 1.199 1.734 2.796 1.734 4.794v14.58h.051zm14.946.5c-3.315 0-6.07-1-8.264-2.997-2.193-1.997-3.265-4.594-3.265-7.89 0-3.045 1.072-5.642 3.163-7.69 2.092-2.097 4.796-3.145 8.06-3.145 3.163 0 5.765 1.048 7.805 3.146 1.99 2.097 3.01 4.893 3.01 8.389v1.398h-15.049c.204 1.048.765 1.897 1.684 2.596.918.7 2.142 1.049 3.571 1.049.816 0 1.734-.15 2.805-.5 1.072-.349 1.888-.748 2.449-1.248l2.857 4.095c-1.021.899-2.347 1.548-3.928 2.047-1.531.55-3.214.75-4.898.75zm4.081-13.034c-.102-.898-.51-1.747-1.224-2.447-.714-.748-1.734-1.098-3.163-1.098-1.326 0-2.295.35-3.009 1.049-.715.699-1.123 1.547-1.327 2.496h8.723zm107.222-9.986c1.122 0 1.99-.35 2.755-1.099.714-.748 1.071-1.647 1.122-2.696 0-1.099-.357-1.947-1.122-2.697-.765-.748-1.684-1.098-2.755-1.098-1.122 0-1.99.35-2.755 1.099-.765.749-1.122 1.647-1.122 2.696 0 1.049.357 1.947 1.122 2.697.765.748 1.684 1.098 2.755 1.098zm-66.869 23.02c-2.499 0-4.54-.999-6.274-2.946V73H151V44.438h6.734v2.397c1.632-1.948 3.724-2.897 6.274-2.897 2.755 0 4.949.95 6.683 2.847 1.735 1.897 2.602 4.544 2.602 7.94 0 3.445-.867 6.091-2.602 7.989-1.734 1.947-3.928 2.896-6.683 2.896zm-2.244-5.792c1.326 0 2.448-.45 3.316-1.349.867-.898 1.326-2.147 1.326-3.695 0-1.498-.459-2.746-1.326-3.645-.868-.899-1.99-1.348-3.316-1.348-.714 0-1.48.2-2.245.55-.765.349-1.377.798-1.785 1.347v6.292c.408.55 1.02.999 1.785 1.348.765.3 1.531.5 2.245.5zm21.629 5.292h-6.733V44.437h6.733v2.547c.715-.85 1.684-1.598 2.908-2.198 1.225-.599 2.449-.898 3.673-.898v6.341c-.51-.1-1.071-.15-1.683-.15-.918 0-1.888.2-2.857.55-.969.35-1.683.799-2.092 1.348V65.11h.051zm16.325 0h-6.734V44.438h6.734V65.11zm17.396 0h-7.193l-8.315-20.672h7.09l4.745 13.082 4.795-13.083h7.142l-8.264 20.673zm16.936 0h-6.734V44.438h6.734V65.11zm17.395 0h-7.193l-8.315-20.672h7.091l4.744 13.082 4.795-13.083h7.142l-8.264 20.673zm31.935 0h-8.315l-4.642-7.34-1.99 2.346v4.944h-6.734V36.497h6.734v16.129l6.428-8.24h8.111l-7.805 9.438 8.213 11.285zm14.538 0v-2.047c-.663.75-1.581 1.399-2.754 1.848a10.55 10.55 0 01-3.776.699c-1.836 0-3.519-.6-4.999-1.798-1.479-1.198-2.244-2.846-2.244-5.043 0-2.297.714-3.945 2.193-5.043 1.48-1.049 3.163-1.598 5.05-1.598 3.061 0 5.255.799 6.581 2.397v-2.497c0-.899-.357-1.648-1.122-2.197-.765-.55-1.786-.8-3.163-.8-2.244 0-4.234.75-5.968 2.198l-2.449-4.095c2.551-2.147 5.764-3.196 9.59-3.196 1.327 0 2.551.15 3.673.4 1.123.25 2.143.699 3.112 1.298.969.6 1.684 1.448 2.245 2.547.561 1.099.816 2.447.816 3.995V65.11h-6.785zm-3.724-3.794c1.786 0 3.061-.5 3.775-1.498V57.97c-.714-.949-1.989-1.448-3.775-1.448-.969 0-1.785.2-2.397.6-.664.399-.97.998-.97 1.797 0 .799.306 1.348.97 1.798.612.399 1.428.599 2.397.599zM172.573 24.358l3.478.802 2.47-1.554 17.189 3.91.453-1.905-17.188-3.91-1.563-2.455-3.478-.802 1.26-5.363-33.822-7.718.907-4.01L136.332 0l-1.866 8.07-6.199-1.404.302-1.353-5.948-1.354L120 15.286l5.948 1.354.302-1.354 6.2 1.404-1.865 8.069 5.948 1.353.907-4.01 33.823 7.72 1.31-5.464zm3.63-3.408l.806 1.303-1.31.802-2.722-.602.504-2.155 2.722.652zm-53.884-7.167l1.713-7.518 2.168.501-1.714 7.518-2.167-.501zm4.385-.451l1.109-4.812 6.2 1.404-1.109 4.811-6.2-1.403zm8.418 10.425l-2.168-.502 4.789-20.95 2.167.502-.504 2.155-3.831 16.69-.453 2.105zm2.823-3.609l2.973-12.88 4.839 1.102-1.058 4.56 1.915.452 1.059-4.561 4.839 1.103-1.664 7.217 1.916.45 1.663-7.216 4.839 1.102-1.058 4.561 1.915.451 1.059-4.56 4.839 1.102 1.915.451 4.839 1.103-.806 3.458-1.361 5.914-.807 3.458-31.856-7.267zm58.017 10.424s-2.823 5.113-3.126 5.564a3.682 3.682 0 00.706 5.011 4.13 4.13 0 002.52.852h.051c1.613 0 3.125-.952 3.679-2.455a3.757 3.757 0 00-.453-3.358c-.353-.552-3.377-5.614-3.377-5.614z" fill="#29292C"/><path d="M172.926 13.734s-4.436-.15-10.636 5.012c-3.528 2.907-12.954-.401-15.827-.1-3.176.35-5.293 3.408-5.293 3.408l29.135 6.666 3.226-14.134-.605-.852zM135 53h12v4h-12v-4z" fill="#29292C"/></svg>