<svg width="42" height="42" fill="none" xmlns="http://www.w3.org/2000/svg"><path d="M21 41.087c11.046 0 20-8.954 20-20s-8.954-20-20-20-20 8.954-20 20 8.954 20 20 20z" fill="#FEFEFE" stroke="#E31E24"/><path d="M4.587 23.718l-2.28.173-.051-.693 1.525-.527-1.587-.287-.052-.692 2.28-.174.033.427-1.796.137 1.83.313.033.444-1.76.584 1.797-.134.033.426-.005.003zm-.16-2.693l-2.287-.057.013-.463 2.287.057-.013.463zm-.005-.954l-2.27-.29.06-.46.894.114.114-.894-.894-.113.06-.46 2.268.29-.06.46-.992-.128-.113.895.992.126-.06.46zm.33-2.313l-2.227-.514.103-.452 2.228.514-.104.452zm-.144-2.59l.274-.38c.217.146.356.316.42.505.065.191.058.4-.02.633a.992.992 0 01-.535.61c-.258.119-.558.121-.902.005-.359-.121-.61-.31-.747-.563-.137-.254-.152-.533-.051-.835.09-.266.24-.455.455-.566a.924.924 0 01.475-.088l-.044.468a.48.48 0 00-.32.07.479.479 0 00-.197.263.517.517 0 00.042.45c.08.14.25.253.509.338.274.094.486.109.633.05a.51.51 0 00.305-.326.463.463 0 00-.01-.339.697.697 0 00-.287-.3v.006zm1.302-.953l-1.731-.783-.28.618-.35-.16.746-1.654.351.16-.276.615 1.731.783-.19.421zm-.09-2.636l.385-.602a.747.747 0 00-.45-.085.473.473 0 00-.351.232.468.468 0 00-.08.318.546.546 0 00.134.297l-.336.329a.827.827 0 01-.243-.525c-.015-.199.044-.408.18-.623.18-.279.414-.44.701-.475.287-.04.582.038.879.232.204.13.354.28.455.445.1.168.15.34.147.52 0 .178-.06.359-.176.537-.281.437-.661.573-1.14.41l.13-.467c.152.07.287.085.403.049a.493.493 0 00.282-.22.472.472 0 00.067-.367c-.029-.131-.122-.266-.282-.4l-.385.602-.325-.21.005.003zm2.034-.623L6.124 9.46l.487-.56c.183-.213.312-.344.385-.394a.582.582 0 01.385-.1.707.707 0 01.423.19.754.754 0 01.218.29.63.63 0 01.043.295.678.678 0 01-.074.25 2.831 2.831 0 01-.287.383l-.197.227.652.564-.303.349-.002.002zM6.722 9.362l.493.426.166-.191c.119-.137.188-.238.212-.297a.3.3 0 00-.093-.34.305.305 0 00-.205-.08.336.336 0 00-.199.073 2.01 2.01 0 00-.227.24l-.145.168h-.002zm3.065-1.587l.429-.189c.113.236.15.453.108.65a.967.967 0 01-.338.534.986.986 0 01-.77.256c-.285-.029-.543-.178-.781-.452-.248-.287-.37-.577-.36-.864.011-.286.138-.537.38-.746.213-.184.437-.27.678-.259a.9.9 0 01.452.166l-.274.38a.477.477 0 00-.618.025.52.52 0 00-.193.409c0 .16.088.343.266.55.188.217.364.339.522.364a.5.5 0 00.426-.126.458.458 0 00.163-.297c.016-.117-.015-.251-.098-.403l.008.002zm1.602-.168L10.288 6.06l-.553.393-.225-.315 1.478-1.052.225.315-.55.39 1.1 1.548-.377.27h.003zm.194-2.856l.814-.416c.163-.082.284-.137.37-.165.087-.026.17-.036.255-.026a.58.58 0 01.243.09.51.51 0 01.184.207.53.53 0 01.056.3.524.524 0 01-.116.284.62.62 0 01.38.04.55.55 0 01.256.255.705.705 0 01.075.302.59.59 0 01-.07.3.64.64 0 01-.227.238 8.732 8.732 0 01-.489.269l-.692.354-1.042-2.037.003.005zm.586.127l.24.468.27-.137c.16-.083.258-.135.294-.16a.3.3 0 00.13-.158.233.233 0 00-.021-.189.246.246 0 00-.13-.126.274.274 0 00-.19.007 5.215 5.215 0 00-.355.174l-.235.121h-.003zm.414.806l.279.546.38-.194c.147-.075.24-.13.276-.158a.313.313 0 00.109-.157.295.295 0 00-.031-.205.281.281 0 00-.124-.131.287.287 0 00-.176-.029c-.064.01-.194.062-.38.158l-.333.17zm3.959-.545l-.473.16-.354-.429-.868.295-.013.553-.463.158.109-2.45.462-.158 1.6 1.874v-.003zm-1.093-.59l-.571-.7-.02.9.593-.202-.002.003zm5.233.006l-.496.039-.235-.504-.915.07-.15.532-.488.036.71-2.346.489-.037 1.088 2.21h-.003zm-.912-.84l-.38-.82-.243.87.625-.047-.002-.003zm.98.814l.878-1.13-.63-1.144.537.041.398.714.501-.644.538.041-.799 1.037.695 1.248-.553-.041-.447-.812-.563.734-.553-.041-.003-.003zm2.423-.943a1.5 1.5 0 01.207-.56c.073-.107.16-.197.264-.272a.922.922 0 01.328-.153c.15-.033.318-.036.501-.002.334.06.58.209.742.452.163.243.21.545.145.915-.065.364-.215.63-.45.801-.235.17-.517.227-.848.168-.336-.06-.584-.21-.744-.45-.16-.24-.21-.54-.145-.9zm.47.067c-.046.256-.02.46.073.613a.584.584 0 00.414.276.587.587 0 00.483-.116c.14-.111.232-.295.279-.558.047-.259.023-.46-.067-.608a.585.585 0 00-.419-.271.594.594 0 00-.488.111c-.137.109-.23.292-.277.55l.003.003zm2.631-.579l.866.292c.173.06.297.109.378.15a.61.61 0 01.196.166.605.605 0 01.106.237.533.533 0 01-.194.528.543.543 0 01-.287.116.612.612 0 01.238.3.544.544 0 01-.005.361.679.679 0 01-.43.424.639.639 0 01-.327.003 9.943 9.943 0 01-.533-.163l-.736-.25.734-2.166-.006.002zm.318.51l-.168.498.287.098c.17.057.277.09.32.101.078.016.146.01.202-.018a.242.242 0 00.122-.147.243.243 0 000-.181.269.269 0 00-.14-.132 4.856 4.856 0 00-.37-.134l-.25-.086h-.003zm-.289.857l-.196.582.405.137c.158.054.259.082.305.088.07.01.132 0 .189-.034a.29.29 0 00.124-.163.275.275 0 00-.096-.325c-.051-.042-.178-.096-.377-.163l-.354-.12v-.002zm2.623-.403l.4.23-.454.791.535.308c.14.08.25.17.328.266a.67.67 0 01.039.75.665.665 0 01-.652.343 1.34 1.34 0 01-.405-.17l-.936-.538 1.14-1.982.005.002zm-.545 1.879l.39.225c.124.072.214.116.271.132a.302.302 0 00.179-.008.265.265 0 00.147-.124.258.258 0 00.02-.25c-.038-.081-.136-.166-.3-.262l-.405-.232-.3.519h-.002zm2.429-.796l.4.23-1.14 1.982-.4-.23 1.14-1.982zm2.486 2.71l-.253-.387c.328-.201.654-.147.982.166.194.186.3.367.318.548a.525.525 0 01-.411.591.786.786 0 01-.364-.025.714.714 0 01.093.395.547.547 0 01-.16.333.617.617 0 01-.497.202c-.191-.01-.395-.119-.607-.32-.173-.166-.282-.324-.328-.479-.044-.152-.019-.333.082-.54l.4.191c-.064.13-.082.236-.059.316a.54.54 0 00.153.23c.106.1.204.152.297.152a.29.29 0 00.222-.088.272.272 0 00.075-.243c-.015-.093-.077-.193-.186-.297l-.075-.072.238-.25.039.035c.103.099.201.15.3.155a.312.312 0 00.255-.106.276.276 0 00.08-.214c-.005-.083-.046-.163-.129-.243-.14-.134-.294-.15-.468-.046l.003-.003zm1.97 1.166l.974 1.24-1.494 1.174.124.158-.695.548-.238-.305.393-.308-.887-1.127-.392.308-.238-.305.695-.548.121.153a2.16 2.16 0 00.652-.272c.222-.137.488-.325.798-.568l.191-.15-.005.002zm-.032.585c-.545.426-.98.69-1.307.785l.535.68 1.191-.936-.416-.53h-.003zm.54 4.323l-.248-.431.354-.432-.457-.796-.545.096-.243-.424 2.424-.37.243.424-1.525 1.933h-.002zm.365-1.186l.576-.698-.886.155.313.543h-.003zm-.259 1.463l2.127-.84.272.69c.103.26.16.434.17.522a.598.598 0 01-.088.387.715.715 0 01-.367.287.773.773 0 01-.356.06.64.64 0 01-.47-.282 2.63 2.63 0 01-.207-.432l-.111-.279-.802.316-.17-.432.002.003zm1.939-.267l-.608.238.093.235c.068.168.122.277.168.326a.29.29 0 00.158.093.31.31 0 00.186-.018.297.297 0 00.165-.145.322.322 0 00.029-.21 2.272 2.272 0 00-.106-.312l-.083-.207h-.002zm-.08 1.91c.227-.051.426-.062.597-.03.124.023.242.069.354.136a.935.935 0 01.268.24c.09.127.158.28.2.46.074.329.033.616-.125.861-.157.246-.418.408-.783.491-.359.083-.664.05-.915-.098-.248-.147-.41-.388-.485-.713-.078-.331-.037-.618.121-.86.158-.244.414-.407.77-.487h-.002zm.121.46c-.253.06-.432.16-.535.308a.585.585 0 00-.093.488c.041.181.14.313.297.398.155.085.365.098.623.039.256-.06.434-.16.532-.3a.58.58 0 00.086-.49.597.597 0 00-.295-.407c-.155-.085-.36-.098-.615-.038v.002zm1.615 1.951l.039.52-1.14.62 1.215.364.036.481-1.79-.638a1.664 1.664 0 01-.448-.225.429.429 0 01-.173-.326c-.01-.137-.01-.243.003-.32l.343-.026c0 .065.003.124.008.178.008.106.034.181.075.225.044.044.132.08.264.114l1.57-.964-.002-.003zm.757 1.238l.016.215a.503.503 0 01-.344-.124.48.48 0 01-.147-.326.475.475 0 01.096-.346.49.49 0 01.32-.173l.015.214a.241.241 0 00-.16.09.29.29 0 00-.041.2.294.294 0 00.07.188.245.245 0 00.173.065l.002-.003zm-2.904 2.564l.953.023.003-.093c.002-.147-.016-.25-.057-.31-.041-.062-.17-.165-.383-.318l-.49-.344.012-.553.44.29c.175.114.297.204.364.271a1 1 0 01.186.25c.039-.211.116-.36.235-.454a.642.642 0 01.416-.132.66.66 0 01.367.114.509.509 0 01.21.284c.033.117.049.29.041.517l-.026.972-2.287-.057.013-.463.003.003zm1.9.049l.01-.36a3.676 3.676 0 00-.003-.361.24.24 0 00-.08-.15.273.273 0 00-.186-.067.288.288 0 00-.194.054.25.25 0 00-.093.15c-.013.062-.02.189-.026.377l-.008.341.582.016h-.003z" fill="#E31E24"/><path d="M21 36.557c8.544 0 15.47-6.926 15.47-15.47S29.544 5.617 21 5.617 5.53 12.543 5.53 21.087s6.926 15.47 15.47 15.47z" fill="#E31E24" stroke="#E31E24"/><path d="M11.782 14.696c.271 0 .49-.171.49-.383 0-.21-.219-.382-.49-.382s-.491.171-.491.382c0 .212.22.383.49.383z" fill="#2B2A29"/><path fill-rule="evenodd" clip-rule="evenodd" d="M16.165 12.993c-.016.354-.881.858-1.204 1.163-.166.157-.135.4-.166.651-.03.248-.147 1.305-.103 1.496.07.303.424.89.424 1.186-.122.078-.336.246-.512.246-.191-.468.08-.788-.411-.659-.416.111-.597.062-.788.333a6.036 6.036 0 01-.339.414c-.129.103-.426-.029-.633-.034-.067.016-.602.584-.687.675-.101.106-.582.636-.688.677-.217-.031-.232-.243-.398-.277-.075-.015-.522.05-.649.057-.35.026-.969.075-1.294.148-.052.27.258 1.276.364 1.54l1.158 2.724c.052.157.06 1.729.023 1.925a7.28 7.28 0 01-.744.33c-.21.08-.421.35-.566.518-.07.08-.483.49-.517.563-.06.119.114.76.17.892.306.165.866.317 1.184.457.044.277-.243 1.52-.3 1.86-.064.386.075.525.181.838.073.21.073.212.313.22.902.028.364.103 1.054-.587.194-.196.494-.297.693-.486.176-.165.134-.734.339-.837.033-.018.873-.173.984-.194.925-.173 1.093-.271 2.003-.196.264.02.881.103 1.07.03.225-.087.615-.338.83-.356.103.07.14.147.302.197.134.04.292.074.416.11l1.641.445c.243.02.605-.17.902-.13l-.065-1.033c-.416-.21-2.01-.79-2.253-1.044-.757-.793-.473-1.463.387-1.985.688-.416 1.145-.387 1.618-.566.055-.118-.098-1.935-.108-2.034-.238-.134-.89-.26-1.218-.343-1.04-.269-2.607-.796-2.628-2.08-.015-.972.657-1.549 1.225-1.913.3-.191.683-.36 1.068-.504l1.206-.364c.024-.163-.23-4.35-.276-4.567-.395-.057-2.82.326-2.998.499l-.01-.005zm14.492 3.297c-.137.078-.374.35-.783.605-.873.548-2.008.742-3.036.987-.71.171-1.45.347-2.171.515-.729.17-1.489.318-2.215.504l-.147 2.214 1.9.763c.625.271 1.276.579 1.237 1.429-.07 1.491-3.036 1.726-3.36 1.985l-.162 1.878c.594.174 1.98.623 1.948 1.368-.01.25-.059.45-.206.633-.031.038-.16.144-.163.15.145.25.217.248.68.398.237.077.532.217.783.237l.584-.863c.258-.41.235-.33.654.271.09.132.297.484.4.572.227.028.677-.013.793-.14.137-.15.28-.47.448-.55.258.044.289.263.522.284.765.072.785-.28 1.25.349.086.113.088.121.179.214.075.078.11.176.21.228.157-.052.493-.46.627-.597.189-.192.093-.24-.186-.807a13.957 13.957 0 00-.196-.392c-.099-.194-.042-.29.033-.486l.72-1.737c.129-.341.119-.258.896-.349.228-.026.233-.046.334-.256.103-.214.121-.18.37-.248.333-.093.66-.17.984-.256-.039-.175-.14-.248-.243-.348-.109-.106-.79-.864-.78-.946.113-.259.4-.447.457-.7l-.814-.515c-.041-.646.1-.535-.341-.876-.137-.106-.628-.45-.613-.62.008-.08.334-.763.372-.838.086-.165.223-.157.411-.214.553-.165.411.248.812.277.173.012.442-.008.625-.01.553-.014.385.002.776-.474.199-.243.325-.424.542-.666.122-.138.538-.494.582-.675-1.615-1.003-1.04-.675-1.047-1.168l-.982-.235c-.398-.098-.843.217-1.016.103-.005-.008-.01-.026-.01-.023l-.018-.533c.008-.206.013-.41-.008-.615-.121-.062-.457-.212-.548-.29l-.659-.32c-.245.01-.307.703-.42.786l-.004-.002z" fill="#07A241"/><path fill-rule="evenodd" clip-rule="evenodd" d="M22.853 12.479l1.494.325c.48.127.938.284 1.375.458.56.224 2.23 1.093 1.545 1.811-1.137 1.192-6.5 1.654-8.593 2.336-.956.313-1.855.734-2.282 1.38-.708 1.068-.206 1.926.615 2.401.683.396 1.97.732 2.76.907l-.095-1.605c-.212-.121-1.468-.403-.894-.79.367-.248 4.085-1.034 4.662-1.16 1.046-.233 2.09-.484 3.13-.73.966-.23 2.199-.472 3.002-.889 2.337-1.206 1.437-3.23-.566-4.429-1.25-.747-2.855-1.176-4.344-1.447-.325-.06-1.442-.264-1.716-.233l-.096 1.665h.003z" fill="#fff"/><path fill-rule="evenodd" clip-rule="evenodd" d="M19.186 10.06c-.052.372.052 1.31.075 1.736.09 1.665.189 3.595.323 5.215.088.003 2.845-.54 2.85-.545.09-.08.228-3.088.233-3.179.046-.68.183-2.674.173-3.238a8.832 8.832 0 00-1.835-.201c-.405 0-1.496.06-1.822.209l.003.003z" fill="#fff"/><path fill-rule="evenodd" clip-rule="evenodd" d="M21.82 28.87v-.395c.196-.01.346.075.402.194-.075.124-.222.184-.403.2v.002zm-2.461-2.85c.096-.196.56-.232.651-.217l.039.587c-.14-.031-.264-.093-.383-.142-.206-.085-.178-.075-.307-.228zm2.31 2.89c-.124.067-1.188.351-1.302.338l-.228-3.499 1.755-.406-.225 3.567zm.522-5.993c.267.01.926.227 1.003.42-.1.218-.757.41-1.057.458l.054-.878zm.018-.166l.09-1.457c.246-.016 2.177.83 2.428.98.93.56.72 1.596-.179 2.054-.884.45-2.873.953-3.972 1.199-.419.093-1.039.152-1.33.387-.034.267.11.331.307.424a5.4 5.4 0 00.506.21l.08 1.18c-.372-.103-.901-.377-1.281-.534-.546-.228-.789-.256-1.093-.703-.66-.967.612-1.605 1.364-1.856.786-.264 3.975-.716 4.181-1.22.166-.403-.88-.514-1.095-.661l-.006-.003zm-3.426-2.887c.129-.113.573-.307.84-.27l.04.733c-.247-.039-.826-.21-.88-.463zm.98-.32c.23-.103 2.237-.563 2.547-.605-.013.497-.266 4.784-.333 4.874-.08.093-1.773.453-1.933.427l-.285-4.698.003.002zm3.077-6.91c.866.01 4.318.956 4.448 2.041.046.383-.559.636-.866.765a9.45 9.45 0 01-1.186.414c-.466.134-2.21.573-2.634.586l.235-3.809.003.003zm.109-1.82c.273-.033 1.39.173 1.716.233 1.488.271 3.096.7 4.344 1.447 2.003 1.2 2.9 3.223.566 4.43-.806.416-2.037.661-3.003.889-1.04.245-2.083.496-3.13.728-.576.127-4.292.913-4.662 1.16-.574.388.68.667.894.791l.096 1.605c-.79-.175-2.078-.511-2.76-.907-.822-.475-1.323-1.333-.615-2.4.429-.644 1.326-1.068 2.282-1.38 2.09-.683 7.456-1.145 8.593-2.337.684-.718-.985-1.587-1.546-1.811a11.58 11.58 0 00-1.375-.458l-1.493-.325.095-1.665h-.002zM12.9 14.685c-.132.026-.246.106-.39.16-.342.125-1.954.525-2.12.23a.517.517 0 01.13-.681c1.455-1.21 3.354-2.205 5.253-2.792.742-.227 2.559-.72 3.298-.73l.083 1.444c-.036.018-.003.01-.078.028a.89.89 0 01-.08.013c-.953.114-1.25.09-2.341.352-.677.16-1.584.41-2.153.692-.023.202.235.726-.36 1.176-.785.597-2.04.845-3.049.892-.328.015-.501.036-.602-.215.62.041 1.628-.121 2.212-.38a.96.96 0 00.127-.067c.088-.083.031.026.067-.122h.003zm6.285-4.628c.326-.15 1.416-.21 1.822-.21.654 0 1.233.076 1.835.202.01.564-.127 2.559-.174 3.238-.005.09-.142 3.096-.232 3.18-.005.002-2.765.547-2.85.544-.135-1.622-.236-3.55-.324-5.215-.023-.426-.126-1.364-.075-1.736l-.002-.003zm1.406-3.347c1.142-.088 3.341.21 3.494 1.254.116.796-.442 1.31-.773 1.649-.432.442-.406.294-.811.224a9.104 9.104 0 00-1.068-.11c-.822-.042-1.478.033-2.243.185-.302.06-1.018-.832-1.16-1.194-.613-1.55 1.279-1.907 2.56-2.008zm-2.494 2.365c.194.491.91.9.943 1.05.023.103.034.49.016.596-.32.093-.874.145-1.225.217-.32.065-.869.23-1.14.251-.147.134-.602.204-.812.284l-1.196.406c-.538.207-1.336.584-1.848.868-.587.326-.79.478-1.344.817-.062.039-.103.057-.163.098-.038.029-.108.09-.147.116-.178.135-.824.582-.907.73-.18.32.119 1.038.491 1.064.853.06 2.435-.295 3.11-.703 1.108-.672.663-1.2.73-1.37.124-.129.53-.25.722-.318.201-.07.648-.24.84-.188.178-.173 2.602-.556 2.997-.499.047.217.297 4.406.277 4.567l-1.207.364c-.385.145-.768.313-1.067.504-.572.364-1.241.94-1.225 1.912.02 1.287 1.589 1.812 2.628 2.08.328.086.98.213 1.217.344.01.098.163 1.915.108 2.034-.472.178-.93.148-1.617.566-.86.522-1.145 1.192-.388 1.985.243.256 1.838.835 2.254 1.044l.064 1.034c-.005.075.039.367-.008.454l.019.083c.292-.142 1.121-.313 1.49-.41.947-.251.737-.6.135-.735l.062-1c.31-.005 1.31.512 1.515.67.25.193.37.323.294.747-.096.537-.406.503-.488.584.028.092-.034.085.088.054.26-.148.095.106.343-.204.148-.184.197-.383.207-.633.031-.745-1.354-1.195-1.949-1.368l.163-1.878c.323-.259 3.293-.494 3.36-1.985.039-.85-.613-1.158-1.238-1.43l-1.9-.762.148-2.214c.726-.186 1.483-.334 2.215-.504.72-.168 1.46-.347 2.17-.515 1.029-.245 2.163-.439 3.037-.987.514-.323 1.008-.692 1.176-1.292.023-.085 0-.015.02-.109-.062-.333.08-.514-.178-1.155-.245-.607-.68-1.096-1.191-1.49-.16-.122-.256-.18-.385-.272a5.219 5.219 0 00-.424-.269c-.147.054-.072-.003-.124-.067-.093-.114-.323-.2-.46-.261a12.561 12.561 0 00-.667-.28c-.933-.361-2.036-.617-3.026-.798-.3-.054-1.499-.188-1.651-.256-.016-.14-.003-.287.007-.429.018-.307.127-.173.569-.638.178-.189.398-.473.52-.724.087-.178.077-.155.09-.188l.028-.088c.078-.341.1-.747-.238-1.124-.578-.652-2.38-.913-3.326-.84-.873.064-2.625.315-2.796 1.36-.075.449.153.782.282 1.103v-.003z" fill="#0B0B0B"/><path fill-rule="evenodd" clip-rule="evenodd" d="M20.59 6.713c-1.283.098-3.174.457-2.562 2.008.145.364.858 1.256 1.16 1.194.768-.153 1.422-.227 2.244-.186.356.018.72.052 1.067.111.403.07.38.217.811-.225.331-.338.89-.85.773-1.649-.152-1.044-2.352-1.343-3.494-1.253zm1.62 16.038c.217.147 1.26.259 1.095.662-.206.504-3.395.959-4.181 1.22-.755.253-2.024.889-1.365 1.855.308.45.55.476 1.093.703.38.158.91.432 1.282.535l-.08-1.181a6.144 6.144 0 01-.506-.21c-.194-.09-.339-.157-.308-.423.292-.235.913-.295 1.331-.388 1.098-.245 3.088-.747 3.972-1.199.9-.457 1.109-1.494.178-2.055-.248-.15-2.178-.997-2.426-.979l-.09 1.458.005.002z" fill="#fff"/><path fill-rule="evenodd" clip-rule="evenodd" d="M24.176 8.579l-.03.08c-.014.034 0 .018-.089.196a3.19 3.19 0 01-.52.724c-.444.465-.55.33-.568.638-.008.142-.02.29-.008.43.153.066 1.352.2 1.652.255.99.181 2.093.437 3.026.799.212.082.46.183.667.279.134.062.367.147.46.26.052.063-.023.122.124.068-.029-.31.106-.762.147-1.054.05-.354-.496-.427-.548-.675.021-.364.357-.17.225-.71-.313-1.282.122-.675-1.176-1.406l-1.01-.528c-.225-.106-.426.034-.778.192-.25.11-.491.211-.731.32-.228.103-.566.297-.845.13l.002.002z" fill="#07A241"/><path fill-rule="evenodd" clip-rule="evenodd" d="M11.696 14.019c.502-.15.515.447.096.566-.476.137-.602-.416-.096-.566zm1.202.67c-.039.146.02.038-.067.12a1.168 1.168 0 01-.127.068c-.586.256-1.592.418-2.212.38.1.253.274.23.602.214 1.008-.046 2.264-.294 3.05-.891.594-.453.338-.975.359-1.176.569-.282 1.476-.533 2.153-.693 1.093-.258 1.39-.238 2.341-.351a.83.83 0 00.08-.013c.075-.02.042-.01.078-.029l-.083-1.444c-.74.01-2.553.501-3.297.731-1.903.584-3.8 1.582-5.254 2.791a.517.517 0 00-.13.682c.163.295 1.778-.105 2.12-.23.142-.051.258-.134.39-.16h-.003z" fill="#fff"/><path fill-rule="evenodd" clip-rule="evenodd" d="M22.602 16.443c.424-.013 2.166-.452 2.634-.587a9.417 9.417 0 001.186-.413c.307-.132.912-.383.866-.765-.132-1.086-3.582-2.031-4.448-2.042l-.235 3.81-.003-.003z" fill="#07A241"/><path fill-rule="evenodd" clip-rule="evenodd" d="M19.76 19.547l.284 4.698c.16.026 1.853-.336 1.933-.426.067-.09.32-4.378.333-4.874-.31.04-2.318.5-2.548.604l-.003-.002zm.462 9.918c-.33.067-.78.233-1.075.357-.333.14-.69.344-.584.835.085.392.442.47.786.622.281.125.752.326 1.03.396l-.028-.639c-.287-.072-.765-.16-.785-.467.119-.253.566-.28.858-.357l1.868-.55c.326-.106.628-.246.938-.344.083-.083.393-.047.489-.584.075-.424-.047-.55-.295-.747-.204-.158-1.204-.674-1.514-.67l-.062 1c.602.135.814.484-.135.735-.372.098-1.199.268-1.49.41v.003z" fill="#fff"/><path fill-rule="evenodd" clip-rule="evenodd" d="M21.897 25.346l-1.755.406.227 3.499c.114.01 1.179-.271 1.303-.339l.225-3.566z" fill="#fff"/><path fill-rule="evenodd" clip-rule="evenodd" d="M20.692 34.024l.644.005-.106 1.545c-.165.076-.29.06-.452 0l-.088-1.55h.002zm.89-1.74c.217.003.415.251.39.51-.024.222-.246.424-.455.46l.067-.967-.003-.002zm.056-.728c.652.189 1.486 1.114.595 1.972-.641.615-2.192.38-2.479-.08.646.186 1.23.258 1.846-.065.22-.114.493-.297.506-.623.013-.354-.253-.53-.506-.625l.04-.576-.002-.003zm-1.933-.956c.093-.13.39-.22.613-.197l.013.468c-.2-.005-.566-.121-.626-.271zm1.895-.571l-.23 3.28c-.034.071-.256.105-.339.12a1.89 1.89 0 01-.388.042l-.196-3.13 1.153-.315v.003zm-1.378-.566l-.018-.083c-.292.034-1.271.388-1.45.535-.462.377-.382 1.008.14 1.261.39.189.811.336 1.202.499.085.036.118.033.198.064.22.086.145.334.194.778.018.158.016.308.029.468l.008.39c-.08.375-.89-.145-.985-.155-.003.24.227.385.39.48.122.07.178.089.313.146.426.188.33-.08.421 1.359.018.302-.023.574.434.514.122-.015.158-.036.215-.114.121-.32.01-1.395.15-1.61.098-.1 1.144-.188 1.243-1.212.077-.808-.618-1.064-1.07-1.37-.042-.265.013-.612.028-.88.02-.35-.052-.574.282-.665.429-.116 1.28-.475 1.375-.498-.122.033-.06.038-.088-.055-.31.096-.615.238-.938.344l-1.869.55c-.294.075-.739.101-.858.357.021.308.496.393.786.468l.028.638c-.279-.07-.75-.271-1.03-.395-.345-.15-.701-.228-.786-.623-.106-.494.253-.695.584-.835.294-.124.744-.29 1.075-.356h-.003z" fill="#0B0B0B"/><path fill-rule="evenodd" clip-rule="evenodd" d="M20.447 30.346l.196 3.13c.14 0 .259-.015.388-.041.08-.016.305-.05.339-.122l.23-3.28-1.153.316v-.003z" fill="#fff"/><path fill-rule="evenodd" clip-rule="evenodd" d="M16.69 11.192c.27-.018.819-.187 1.139-.251.351-.07.904-.122 1.225-.217.018-.106.01-.494-.015-.597-.024-.1-.543-.46-.804-.806-.047-.075-.085-.15-.14-.243-.036.193-1.248 1.465-1.325 1.742-.034.123-.05.279-.083.369l.002.003z" fill="#07A241"/><path fill-rule="evenodd" clip-rule="evenodd" d="M21.597 32.135c.253.095.52.271.506.625-.013.326-.286.51-.506.623-.615.323-1.2.25-1.845.065.287.462 1.84.695 2.478.08.892-.858.057-1.783-.594-1.972l-.042.576.003.003z" fill="#fff"/><path fill-rule="evenodd" clip-rule="evenodd" d="M20.78 35.575c.16.056.287.072.453 0l.106-1.546-.644-.005.088 1.55h-.003z" fill="#fff"/><path fill-rule="evenodd" clip-rule="evenodd" d="M22.137 23.795c.303-.046.956-.24 1.057-.457-.077-.197-.736-.414-1.002-.421l-.055.878zm-3.357-3.931c.054.254.633.424.881.463l-.041-.734c-.266-.034-.71.158-.84.271z" fill="#07A241"/><path fill-rule="evenodd" clip-rule="evenodd" d="M21.514 33.251c.212-.036.434-.235.455-.46.026-.258-.173-.506-.39-.509l-.067.967.002.002z" fill="red"/><path fill-rule="evenodd" clip-rule="evenodd" d="M19.359 26.023c.13.152.1.142.307.227.12.05.243.114.383.142l-.039-.586c-.093-.013-.558.02-.651.217z" fill="#07A241"/><path fill-rule="evenodd" clip-rule="evenodd" d="M19.705 30.602c.06.15.427.267.626.272l-.013-.468c-.222-.02-.52.07-.613.196zm2.115-1.732c.18-.015.328-.074.402-.198-.056-.119-.204-.204-.403-.194v.395-.002z" fill="red"/><path d="M3.515 28.233l2.083-.944.304.675c.117.256.181.426.194.514a.59.59 0 01-.07.393.714.714 0 01-.351.305.787.787 0 01-.354.077.644.644 0 01-.48-.256 2.628 2.628 0 01-.228-.42l-.124-.275-.786.357-.191-.421.003-.005zm1.922-.362l-.594.268.103.23c.075.166.137.272.184.316a.306.306 0 00.346.06.294.294 0 00.158-.153.313.313 0 00.015-.212 2.231 2.231 0 00-.121-.308l-.09-.201zm.574 2.315l.385.605a.754.754 0 00.266-.372.477.477 0 00-.064-.416.477.477 0 00-.254-.207.538.538 0 00-.325-.003l-.155-.441a.82.82 0 01.576 0c.189.07.351.211.488.426.179.279.225.558.137.835-.087.276-.279.509-.578.7-.205.13-.404.204-.595.225a.979.979 0 01-.535-.085.997.997 0 01-.416-.386c-.279-.439-.243-.84.106-1.206l.37.312c-.127.109-.2.225-.215.347a.516.516 0 00.08.349.478.478 0 00.305.216c.132.032.292 0 .48-.085l-.384-.605.325-.206.003-.003zm1.43 2.74l.19.426c-.235.114-.452.15-.648.111a.982.982 0 01-.538-.338.998.998 0 01-.258-.77c.028-.285.178-.543.45-.781.286-.25.573-.37.863-.36.286.011.537.135.746.378.184.212.272.437.261.677a.893.893 0 01-.165.455l-.382-.274a.468.468 0 00-.028-.615.517.517 0 00-.41-.191c-.16 0-.343.09-.55.269-.217.188-.338.364-.361.522a.508.508 0 00.126.426c.08.093.181.147.297.163.117.015.251-.018.404-.098h.002zm1.64-.336l1.313 1.258L8.812 35.5l-.333-.32 1.315-1.372-.643-.618-1.315 1.372-.334-.32 1.582-1.651H9.08zm1.393 1.297l.424.302-.253 1.274 1.06-.7.392.28-1.638.966c-.179.103-.331.17-.46.201a.428.428 0 01-.362-.077 1.627 1.627 0 01-.246-.207l.2-.28c.051.042.097.078.139.11.088.061.16.09.22.085.059-.005.144-.05.255-.13l.267-1.822.002-.002zm1.801 1.248l1.479.856-.194.333-1.078-.623-.266.46.535.308c.147.085.258.173.336.266a.662.662 0 01.041.744.665.665 0 01-.651.344 1.242 1.242 0 01-.408-.166l-.933-.54 1.145-1.98-.006-.002zm-.55 1.876l.388.225c.124.073.214.117.27.135a.282.282 0 00.327-.13c.051-.09.056-.175.018-.255-.042-.08-.14-.163-.298-.256l-.405-.235-.3.516zm2.522-.847l1.486.597-.853 2.121-.429-.173.708-1.762-.638-.256-.364.907a4.3 4.3 0 01-.243.532.41.41 0 01-.222.189c-.09.031-.207.018-.35-.041a8.61 8.61 0 01-.268-.124l.134-.334.096.039c.09.036.155.05.196.036.042-.013.08-.064.12-.16l.144-.364.486-1.21-.003.003zm1.254 2.884l.615-2.202.447.124-.615 2.202-.447-.124zm1.462-1.946l.455.085-.178.959c.103.008.176-.005.22-.041.043-.037.121-.143.23-.32.14-.226.26-.36.366-.401.106-.042.261-.044.47-.006.011.003.034.005.068.01l-.062.337-.065-.013a.436.436 0 00-.209-.003.283.283 0 00-.124.085 1.958 1.958 0 00-.17.27 1.059 1.059 0 01-.127.178.465.465 0 01-.2.116.471.471 0 01.218.22c.049.098.098.235.147.408l.191.672-.535-.099-.162-.627a10.518 10.518 0 01-.054-.168.707.707 0 00-.104-.236.299.299 0 00-.16-.075l-.181.982-.455-.085.416-2.248h.005zm3.73 2.768l-.497-.04-.157-.534-.915-.07-.23.504-.489-.036 1.06-2.212.488.036.74 2.349v.003zm-.776-.97l-.253-.868-.372.82.625.046v.002zm3.957-1.61l1.664-.385.088.378-1.215.279.12.517.601-.14a1.21 1.21 0 01.427-.033c.119.015.23.067.33.16.104.09.171.21.205.356.033.15.025.29-.029.414a.627.627 0 01-.217.282c-.09.062-.227.113-.41.157l-1.052.243-.515-2.227h.003zm.878 1.748l.437-.101c.14-.031.238-.062.29-.088a.286.286 0 00.126-.127.255.255 0 00.02-.191c-.022-.103-.077-.168-.16-.197-.085-.028-.214-.023-.392.019l-.457.106.134.581.002-.002zm2.024-.13l-.824-2.132 1.579-.61.14.36-1.148.444.183.473 1.067-.413.14.359-1.067.413.222.58 1.189-.461.14.36-1.621.625v.002zm1.264-2.987l1.431-.716 1.021 2.047-.413.206-.85-1.7-.616.307.437.874c.124.25.204.429.235.535a.418.418 0 01-.005.292c-.036.088-.124.165-.26.235-.05.023-.14.062-.272.119l-.16-.32.093-.044c.085-.044.14-.083.157-.122.018-.039.005-.103-.041-.194l-.176-.351-.581-1.166v-.002zm4.675-.238l-.406.292-.465-.308-.745.535.15.533-.398.287-.612-2.375.398-.285 2.078 1.324v-.003zm-1.218-.243l-.752-.501.243.868.51-.364v-.003zm1.543-.033l-1.57-1.662.537-.51c.204-.193.343-.31.42-.35a.6.6 0 01.394-.063.725.725 0 01.403.233.784.784 0 01.189.31.653.653 0 01-.083.54 2.57 2.57 0 01-.326.352l-.217.206.592.626-.336.318h-.003zm-.969-1.698l.447.472.184-.173c.132-.124.212-.217.24-.276a.294.294 0 00.026-.181.31.31 0 00-.085-.165.298.298 0 00-.398-.047 2.276 2.276 0 00-.251.217l-.16.153h-.003zm.71-1.184l.34-.395 1.245.364-.602-1.116.313-.367.816 1.718a1.7 1.7 0 01.16.476.426.426 0 01-.108.351 1.504 1.504 0 01-.227.225l-.262-.222a1.7 1.7 0 00.12-.132c.07-.08.103-.152.103-.212s-.036-.15-.106-.266l-1.794-.427.003.003zm3.373-2.036l.36-.3c.173.194.268.393.284.592.015.201-.044.403-.176.61a.983.983 0 01-.67.46c-.28.051-.57-.021-.873-.218-.32-.206-.514-.45-.584-.73-.07-.28-.018-.554.158-.823.152-.235.346-.38.579-.436.14-.034.3-.024.48.033l-.157.442a.495.495 0 00-.328-.01.494.494 0 00-.256.206.524.524 0 00-.073.447c.044.156.181.305.409.455.243.158.444.225.602.205a.51.51 0 00.375-.24.462.462 0 00.075-.332.679.679 0 00-.205-.359v-.002zm-.806-1.46l.21-.414.813.41.28-.55c.131-.258.286-.416.467-.47a.686.686 0 01.525.047.662.662 0 01.38.625 1.28 1.28 0 01-.145.419l-.486.964-2.041-1.032h-.003zm1.905.444l.201-.4c.065-.13.106-.223.12-.28a.288.288 0 00-.019-.178.266.266 0 00-.134-.142c-.093-.047-.179-.047-.256-.003-.078.047-.158.15-.24.313l-.212.419.535.27h.005z" fill="#E31E24"/><path d="M11.572 14.476a.116.116 0 00.114-.119.116.116 0 00-.114-.119.116.116 0 00-.113.12c0 .065.05.118.114.118z" fill="#009846" stroke="#2B2A29" stroke-width=".2"/></svg>