<svg width="140" height="29" fill="none" xmlns="http://www.w3.org/2000/svg"><g clip-path="url(#clip0)" fill="#fff"><path d="M125.085.087a10.304 10.304 0 00-5.644 1.67 9.988 9.988 0 00-3.745 4.462 9.754 9.754 0 00-.582 5.747 9.876 9.876 0 002.776 5.095 10.223 10.223 0 005.199 2.725c1.97.385 4.012.188 5.868-.564a10.112 10.112 0 004.559-3.663 9.803 9.803 0 001.712-5.526 9.855 9.855 0 00-2.973-7.026 10.276 10.276 0 00-7.17-2.92zm7.919 4.395c-.522.346-1.068.656-1.633.928a10.344 10.344 0 00-1.214-1.859 9.655 9.655 0 001.183-.83 9.633 9.633 0 011.664 1.76zm-4.273-3.299c.814.324 1.58.755 2.276 1.28a9.03 9.03 0 01-1.12.773c-.5-.561-1.06-1.068-1.67-1.513a4.77 4.77 0 00.514-.54zm.786 2.258a9.497 9.497 0 01-1.707.7 14.732 14.732 0 00-.859-1.622c.329-.141.64-.32.926-.531.599.424 1.15.912 1.642 1.453h-.002zm-1.2-2.409a3.964 3.964 0 01-.449.45 10.324 10.324 0 00-1.701-.921 9.686 9.686 0 012.152.471h-.002zm-.795.71c-.243.17-.503.313-.777.427-.303-.462-.63-.908-.981-1.335.616.246 1.205.55 1.76.908h-.002zm-2.232-.84c.378.448.728.918 1.047 1.408a4.32 4.32 0 01-1.047.18V.901zm0 1.999a4.81 4.81 0 001.276-.23 13.8 13.8 0 01.832 1.582 9.52 9.52 0 01-2.111.286l.003-1.638zm-.423-1.98V2.49a4.37 4.37 0 01-1.032-.18 14.96 14.96 0 011.034-1.388h-.002zm-1.433 1.248a4.093 4.093 0 01-.78-.427c.55-.356 1.133-.66 1.743-.906-.346.426-.666.871-.961 1.333h-.002zm.586-1.617c-.6.256-1.174.566-1.714.926-.16-.14-.311-.29-.451-.45a9.747 9.747 0 012.167-.474l-.002-.002zm6.956 17.067c-1.352-.728-1.378-1.733-1.306-2.104.071-.371.335-.213.503-.213.886 0 1.821-.258 2.971-1.408 1.306-1.297 1.705-4.18-.29-6.059-2.15-2.026-4.435-1.67-5.907.15-.303.373-1.039.64-1.677.625-.945-.037-.349.693-.349.853 0 .16-.143.26-.217.237-.32-.09-.192.375-.192.516a.214.214 0 01-.203.213c-.396 0-.287.35-.276.446a.345.345 0 01-.157.326.855.855 0 00-.277.61c0 .427.395.715 1.057 1.2.662.484.74.938.753 1.269a3.8 3.8 0 00.194 1.21c.177.426.155 1.196-.756 1.23-1.113.045-3.09.916-3.267.976a3.997 3.997 0 01-2.108.138 9.84 9.84 0 01-.995-.791c-.131-.44.095-.91.322-1.227.37.365.923.34 1.233.35.689-.05 1.374-.147 2.049-.292a.57.57 0 01.436 0c.579.213 1.379.268 1.701-.822.322-1.09-.436-.787-.538-.74-.102.047-.229.036-.181-.058.142-.277-.069-.25-.191-.26-.312-.03-.719.295-.85.412a.3.3 0 01-.311.083c-.414-.2-1.645.09-2.026-.563.035-.175-.311-2.829-.49-3.286a.444.444 0 01.046-.426c.313-.461 1.174.034 1.642.023a.837.837 0 00.804-.427c.146-.179.255-.078.335-.127.081-.05 0-.194.042-.265.041-.07.078-.036.172-.117.093-.081-.013-.258.037-.329.137-.213.514-.04.289-.574-.124-.294.048-.612.218-.823.272-.344 1.32-1.788-.527-3.288-1.762-1.431-3.548-1.316-4.7-.093-1.152 1.222-.575 3.005-.455 3.475.119.47-.218.896-.623 1.08a8.958 8.958 0 00-1.575 1.077 9.367 9.367 0 011.719-5.218 9.659 9.659 0 014.379-3.416c.158.192.329.372.514.538-.407.29-1.291 1.066-1.291 1.066s.122.017.233.045c.078.017.244.066.244.066s.78-.64 1.143-.906c.286.212.597.39.926.53-.172.28-.608 1.097-.608 1.097s.103.06.194.12c.053.034.103.071.15.113 0 0 .486-.894.669-1.193.408.133.832.21 1.261.229v1.638c-.237 0-.851-.032-1.1-.056l-.157-.014.088.128c.06.087.114.178.163.273l.017.036h.042c.181.015.74.034.947.038v2.987h.423v-.683c.618-.03 1.135-.07 1.757-.123h.027l.546-.474-.298.026c-.654.085-1.235.123-1.76.151l-.272.015V4.942a9.993 9.993 0 002.278-.313c.205.49.59 1.685.59 1.685l.397-.121s-.386-1.184-.586-1.677a9.984 9.984 0 001.812-.758 9.878 9.878 0 011.202 1.827c-.3.136-.845.326-.845.326.26.028.518.078.769.15l.253-.11.115.259.547.239-.063-.15-.218-.522c.585-.283 1.15-.603 1.692-.958a9.377 9.377 0 011.441 6.835 9.503 9.503 0 01-3.702 5.965h.002zM114.01 2.73l-.16.137c-.596.516-1.96 1.88-1.742 3.375l.022.104.067.297.19-.171c.834-.747 1.459-2.014 1.714-3.473l.072-.41-.163.141zm-2.764 2.584l-.068.181c-.175.476-.295.97-.359 1.472-.129.988-.098 2.385.777 3.426l.096.124.102.126.131-.64c.144-1.12-.046-3.47-.466-4.519l-.146-.356-.067.186zm-1.009 4.04l-.013.186c-.074 1.005-.02 3.486 2.03 4.8l.244.153-.011-.281c-.035-.941-1.157-3.75-1.999-4.758l-.238-.285-.013.185zm.353 4.437l.035.171c.3 1.425 1.679 3.733 3.811 4.403l.292.092-.104-.282c-.399-1.066-2.453-3.55-3.77-4.369l-.299-.185.035.17zm4.282-8.915l-.168.1c-1.587.948-2.328 2.098-2.271 3.516l.015.325.231-.19c.858-.696 1.932-2.473 2.248-3.484l.115-.37-.17.103zm-.934 3.104l-.122.111c-.408.38-1.721 1.747-1.608 3.444.023.283.084.563.181.832l.094.27.17-.232c.627-.866 1.461-3.151 1.415-4.213l-.013-.323-.117.111zm.069 2.942l-.089.13c-.653.965-1 1.955-.98 2.865.023.689.25 1.356.653 1.92l.14.203.117-.213c.288-.527.514-2.238.482-3.59a4.693 4.693 0 00-.144-1.144l-.087-.299-.092.128zm.767 3.145l-.041.136a5.49 5.49 0 00-.277 1.82c.002.615.165 1.218.475 1.753a3.6 3.6 0 001.294 1.298l.191.12.042-.255.017-.2c-.033-1.067-.845-3.761-1.481-4.583l-.177-.226-.043.137zm-2.235 4.17l.083.135c.854 1.401 2.304 3.213 5.009 2.747l.218-.038-.128-.186c-.506-.738-3.797-2.56-4.962-2.743l-.318-.051.098.136zm4.01 3.563l-.435.113.409.164c1.723.691 3.886.896 5.138.482a2.798 2.798 0 001.106-.744c2.207.213 4.272 2.02 5.476 3.488l.065.072.094-.027a1.4 1.4 0 00.436-.297l.085-.09-.077-.098c-1.256-1.608-3.223-2.607-3.31-2.647-1.764-.847-4.888-1.506-8.987-.416zm.091-4.493l.024.141c.26 1.592.917 3.68 3.662 3.448l.176-.013-.043-.169c-.186-.723-2.699-2.824-3.579-3.413l-.264-.134.024.14zm19.398-14.716l.072.41c.255 1.46.871 2.726 1.714 3.473l.19.17.065-.296.022-.104c.218-1.494-1.15-2.859-1.742-3.375l-.159-.137-.162-.14zm2.855 2.543l-.143.357c-.421 1.05-.612 3.398-.469 4.518l.131.64.102-.126.098-.124c.872-1.043.907-2.44.776-3.426a6.852 6.852 0 00-.357-1.472l-.07-.181-.068-.186zm1.064 4.035l-.24.285c-.841 1.007-1.96 3.817-1.997 4.758l-.011.281.239-.153c2.052-1.316 2.104-3.795 2.032-4.8l-.015-.186-.008-.185zm-.303 4.454l-.299.186c-1.32.819-3.374 3.302-3.77 4.369l-.107.281.292-.091c2.13-.67 3.511-2.987 3.81-4.404l.037-.17.037-.171zm-4.406-8.894l.108.371c.294 1.016 1.333 2.814 2.179 3.527l.228.194.02-.325c.085-1.416-.634-2.579-2.202-3.558l-.168-.104-.165-.105zm.901 3.142l-.013.323c-.043 1.066.786 3.347 1.416 4.213l.17.232.093-.27a3.18 3.18 0 00.179-.832c.115-1.694-1.2-3.064-1.607-3.444l-.118-.11-.12-.112zm-.035 2.921l-.091.299a4.595 4.595 0 00-.142 1.143c-.034 1.353.194 3.062.477 3.59l.118.214.139-.203a3.489 3.489 0 00.654-1.92c.022-.91-.314-1.9-.978-2.865l-.087-.13-.09-.128zm-.729 3.14l-.174.226c-.636.822-1.451 3.514-1.482 4.583 0 0 .016.196.018.2l.041.254.192-.12a3.611 3.611 0 001.294-1.3c.31-.534.473-1.139.475-1.754a5.49 5.49 0 00-.279-1.82l-.044-.136-.041-.133zm2.365 4.168l-.316.052c-1.163.186-4.456 2.005-4.961 2.743l-.127.186.218.038c2.714.466 4.162-1.346 5.01-2.747l.082-.135.094-.136z"/><path d="M124.664 22.216c-.087.04-2.053 1.039-3.308 2.647l-.076.099.085.09c.124.125.272.225.435.296l.094.027.065-.072c1.203-1.468 3.267-3.264 5.476-3.488.302.333.683.588 1.109.744 1.252.414 3.413.214 5.138-.482l.409-.164-.436-.113c-4.09-1.09-7.222-.43-8.991.416zm8.924-5.05l-.264.135c-.871.59-3.393 2.692-3.578 3.413l-.044.169.174.012c2.745.23 3.405-1.855 3.664-3.447l.024-.14.024-.142zM5.319 15.703H2.675v6.758H0V7.428h2.675v6.37H5.38c.435-4.109 3.282-6.699 7.233-6.699 4.286 0 7.203 2.916 7.203 7.77 0 4.644-2.978 7.893-7.264 7.893-4.134-.004-6.898-2.713-7.233-7.059zm11.67-.834c0-3.661-1.762-5.924-4.437-5.924-2.675 0-4.406 2.263-4.406 5.924 0 3.75 1.762 6.163 4.406 6.163 2.644 0 4.439-2.598 4.439-6.163h-.002zm5.199-7.441h2.674v6.37h7.78v-6.37h2.675V22.46h-2.675v-6.758h-7.78v6.758h-2.674V7.428zm15.834 0h2.679v11.759l7.688-11.76h3.006v15.034H48.72V10.88l-7.749 11.58h-2.949V7.427zm15.865 7.68c0-4.615 2.614-8.107 7.6-8.107 3.464 0 5.956 1.726 6.261 5.27h-2.614c-.152-2.134-1.459-3.414-3.648-3.414-3.618 0-4.772 3.096-4.772 6.133 0 2.86 1.246 6.014 4.65 6.014 2.25 0 3.677-1.429 3.83-3.6h2.515l.091.03c-.274 3.6-2.977 5.358-6.473 5.358-4.826-.004-7.44-3.13-7.44-7.684zm15.531.089c0-4.495 2.311-8.038 7.295-8.038 5.136 0 6.595 3.9 6.595 8.275H72.093v.299c0 2.773 1.525 5.299 4.62 5.299 2.178 0 3.617-1.31 3.95-3.413h2.553c-.607 3.543-3.221 5.18-6.717 5.18-4.77-.011-7.08-3.137-7.08-7.602zm11.246-1.493c.03-2.47-1.246-4.764-4.043-4.764-2.796 0-4.225 2.264-4.467 4.764h8.51zm13.981 7.684a5.353 5.353 0 01-3.485 1.37c-3.703 0-5.805-3.185-5.805-7.8 0-4.693 1.945-7.799 5.744-7.799 1.428 0 2.857.655 3.556 1.37V.94h2.675v7.59c.7-.715 2.159-1.37 3.587-1.37 3.799 0 5.744 3.095 5.744 7.8 0 4.614-2.128 7.799-5.835 7.799a5.353 5.353 0 01-3.485-1.37v6.699h-2.696v-6.699zm0-1.815v-9.319c-.547-.744-1.701-1.22-2.675-1.22-2.766 0-3.83 2.291-3.83 5.895 0 3.603 1.09 5.954 3.704 5.954.978 0 2.315-.685 2.8-1.31zm9.178-4.644c0-3.601-1.063-5.895-3.83-5.895-.973 0-2.127.476-2.674 1.22v9.319c.516.625 1.854 1.31 2.797 1.31 2.613 0 3.707-2.353 3.707-5.954z"/></g><defs><clipPath id="clip0"><path fill="#fff" transform="translate(0 .087)" d="M0 0h140v28H0z"/></clipPath></defs></svg>